# xmcd
#
# Track frame offsets: 
#        150
#        9484
#        25856
#        41613
#        54320
#        74692
#        90989
#        108109
#        118396
#        136182
#        145777
#        161221
#        175652
#        187770
#
# Disc length: 2682 seconds
#
# Revision: 1
# Processed by: cddbd v1.5.2PL0 Copyright (c) Steve Scherf et al.
# Submitted via: ExactAudioCopy v0.95b3
#
DISCID=b30a780e
DTITLE=Blake Shelton - Cheers, It's Christmas.
DYEAR=2012
DGENRE=Country
TTITLE0=Jingle Bell Rock [feat. Miranda Lambert]
TTITLE1=White Christmas
TTITLE2=Oklahoma Christmas [feat. Reba]
TTITLE3=Let It Snow! Let It Snow! Let It Snow!
TTITLE4=There's A New Kid In Town [feat. Kelly Clarkson]
TTITLE5=Santa's Got A Choo Choo Train
TTITLE6=Home [feat. Michael Bublé]
TTITLE7=Winter Wonderland
TTITLE8=The Christmas Song
TTITLE9=Blue Christmas [feat. Pistol Annies]
TTITLE10=I'll Be Home For Christmas
TTITLE11=Silver Bells [feat. Xenia]
TTITLE12=Time For Me To Come Home [feat. Dorothy Shackleford]
TTITLE13=The Very Best Time Of Year [feat. Trypta-Phunk]
EXTD=
EXTT0=
EXTT1=
EXTT2=
EXTT3=
EXTT4=
EXTT5=
EXTT6=
EXTT7=
EXTT8=
EXTT9=
EXTT10=
EXTT11=
EXTT12=
EXTT13=
PLAYORDER=
